<?xml version="1.0" encoding="UTF-8" standalone="no"?>
<!-- Created with Inkscape (http://www.inkscape.org/) -->

<svg
   width="158.403mm"
   height="29mm"
   viewBox="0 0 158.403 29.000001"
   version="1.1"
   id="svg63132"
   inkscape:version="1.3.2 (1:1.3.2+202311252150+091e20ef0f)"
   sodipodi:docname="logo_ai4soilhealth_square.bw.svg"
   inkscape:export-filename="logo_ai4soilhealth_square.bw.png"
   inkscape:export-xdpi="120"
   inkscape:export-ydpi="120"
   xmlns:inkscape="http://www.inkscape.org/namespaces/inkscape"
   xmlns:sodipodi="http://sodipodi.sourceforge.net/DTD/sodipodi-0.dtd"
   xmlns="http://www.w3.org/2000/svg"
   xmlns:svg="http://www.w3.org/2000/svg">
  <sodipodi:namedview
     id="namedview63134"
     pagecolor="#ffffff"
     bordercolor="#666666"
     borderopacity="1.0"
     inkscape:pageshadow="2"
     inkscape:pageopacity="0.0"
     inkscape:pagecheckerboard="0"
     inkscape:document-units="mm"
     showgrid="false"
     fit-margin-top="0"
     fit-margin-left="0"
     fit-margin-right="0"
     fit-margin-bottom="0"
     inkscape:zoom="0.98520768"
     inkscape:cx="398.39316"
     inkscape:cy="147.6846"
     inkscape:window-width="1920"
     inkscape:window-height="1073"
     inkscape:window-x="0"
     inkscape:window-y="0"
     inkscape:window-maximized="1"
     inkscape:current-layer="layer1"
     inkscape:showpageshadow="2"
     inkscape:deskcolor="#d1d1d1" />
  <defs
     id="defs63129">
    <clipPath
       clipPathUnits="userSpaceOnUse"
       id="clipPath63267">
      <path
         d="M 0,595.276 H 884.401 V 0 H 0 Z"
         id="path63265" />
    </clipPath>
    <clipPath
       clipPathUnits="userSpaceOnUse"
       id="clipPath63293">
      <path
         d="M 0,595.276 H 884.401 V 0 H 0 Z"
         id="path63291" />
    </clipPath>
    <clipPath
       clipPathUnits="userSpaceOnUse"
       id="clipPath63485">
      <path
         d="M 0,595.276 H 884.401 V 0 H 0 Z"
         id="path63483" />
    </clipPath>
  </defs>
  <g
     inkscape:label="Layer 1"
     inkscape:groupmode="layer"
     id="layer1"
     transform="translate(-13.492265,-157.39383)">
    <g
       id="g63247"
       transform="matrix(0.17870107,0,0,-0.17870107,42.62666,176.437)"
       style="fill:#606f42;fill-opacity:1">
      <path
         d="M 0,0 -15.131,29.95 -29.059,0 Z M -15.554,64.375 32.501,-31.214 H 15.47 l -7.807,15.607 h -44.125 l -7.117,-15.607 h -17.559 z"
         style="fill:#606f42;fill-opacity:1;fill-rule:nonzero;stroke:none"
         id="path63249" />
    </g>
    <path
       d="m 49.596769,165.7463 h 3.021297 v 16.26859 h -3.021297 z"
       style="fill:#606f42;fill-opacity:1;fill-rule:nonzero;stroke:none;stroke-width:0.178701"
       id="path63251" />
    <g
       id="g63253"
       transform="matrix(0.17870107,0,0,-0.17870107,61.045374,165.74628)"
       style="fill:#606f42;fill-opacity:1">
      <path
         d="M 0,0 H 17.688 L -9.04,-53.972 h 19.965 v 22.758 H 27.832 V -91.038 H 10.925 v 21.459 h -45.194 z"
         style="fill:#606f42;fill-opacity:1;fill-rule:nonzero;stroke:none"
         id="path63255" />
    </g>
    <g
       id="g63257"
       transform="matrix(0.15404375,0,0,-0.15404375,103.48287,165.87067)"
       style="fill:#606f42;fill-opacity:1">
      <path
         d="M 0,0 H 19.494 V -41.24 H 63.282 V 0 H 82.776 V -104.971 H 63.282 v 45.738 H 19.494 v -45.738 H 0 Z"
         style="fill:#606f42;fill-opacity:1;fill-rule:nonzero;stroke:none"
         id="path63259" />
    </g>
    <g
       id="g63261"
       transform="matrix(0.15404375,0,0,-0.15404375,58.163105,204.48471)"
       style="fill:#606f42;fill-opacity:1">
      <g
         id="g63263"
         clip-path="url(#clipPath63267)"
         style="fill:#606f42;fill-opacity:1">
        <g
           id="g63269"
           transform="translate(448.0563,189.6352)"
           style="fill:#606f42;fill-opacity:1">
          <path
             d="m 0,0 c -0.3,2.1 -0.926,4.098 -1.875,5.998 -0.951,1.898 -2.248,3.574 -3.899,5.025 -1.649,1.447 -3.598,2.598 -5.848,3.448 -2.248,0.848 -4.774,1.276 -7.571,1.276 -2.602,0 -5.025,-0.45 -7.275,-1.35 -2.248,-0.9 -4.249,-2.077 -5.998,-3.524 -1.75,-1.451 -3.199,-3.1 -4.348,-4.949 C -37.965,4.074 -38.689,2.1 -38.988,0 Z m 18.146,-21.443 c -1.703,-4 -3.899,-7.497 -6.6,-10.497 -2.699,-2.999 -5.698,-5.5 -8.998,-7.499 -3.297,-2 -6.821,-3.499 -10.57,-4.497 -3.749,-0.999 -7.474,-1.499 -11.171,-1.499 -5.4,0 -10.449,1.025 -15.147,3.073 -4.701,2.049 -8.773,4.821 -12.221,8.323 -3.45,3.497 -6.149,7.622 -8.098,12.371 -1.949,4.747 -2.925,9.821 -2.925,15.221 0,5.399 0.976,10.471 2.925,15.22 1.949,4.747 4.648,8.87 8.098,12.372 3.448,3.497 7.52,6.272 12.221,8.322 4.698,2.049 9.747,3.074 15.147,3.074 5.397,0 10.294,-0.824 14.695,-2.475 4.397,-1.649 8.195,-3.95 11.396,-6.898 3.199,-2.949 5.823,-6.398 7.874,-10.346 2.046,-3.95 3.423,-8.172 4.123,-12.672 0.397,-2.301 0.648,-4.574 0.749,-6.822 0.099,-2.25 0.15,-4.674 0.15,-7.272 h -58.483 c 0.3,-2.003 1.074,-3.926 2.324,-5.774 1.249,-1.851 2.775,-3.45 4.574,-4.799 1.799,-1.35 3.798,-2.425 5.998,-3.223 2.199,-0.803 4.399,-1.2 6.6,-1.2 3.197,0 5.871,0.374 8.022,1.124 2.149,0.749 3.921,1.624 5.323,2.624 1.597,1.099 2.898,2.347 3.899,3.749 z"
             style="fill:#606f42;fill-opacity:1;fill-rule:nonzero;stroke:none"
             id="path63271" />
        </g>
        <g
           id="g63273"
           transform="translate(535.0297,195.1848)"
           style="fill:#606f42;fill-opacity:1">
          <path
             d="m 0,0 c -0.2,0.3 -0.749,0.974 -1.649,2.024 -0.899,1.049 -2.151,2.122 -3.748,3.225 -1.602,1.097 -3.576,2.098 -5.925,2.997 -2.348,0.902 -5.173,1.351 -8.471,1.351 -3.1,0 -5.95,-0.577 -8.548,-1.725 -2.6,-1.151 -4.873,-2.699 -6.822,-4.648 -1.95,-1.95 -3.475,-4.224 -4.574,-6.824 -1.101,-2.6 -1.651,-5.398 -1.651,-8.397 0,-2.999 0.55,-5.799 1.651,-8.397 1.099,-2.601 2.624,-4.874 4.574,-6.823 1.949,-1.95 4.222,-3.502 6.822,-4.648 2.598,-1.151 5.448,-1.725 8.548,-1.725 3.498,0 6.497,0.498 8.996,1.498 2.499,0.999 4.549,2.149 6.149,3.45 1.799,1.398 3.349,3.049 4.648,4.949 z m 0,-43.788 c -2.9,-2.1 -6.097,-3.823 -9.597,-5.173 -3.499,-1.35 -7.149,-2.024 -10.947,-2.024 -5.397,0 -10.496,1.025 -15.294,3.074 -4.799,2.048 -8.949,4.821 -12.448,8.322 -3.499,3.498 -6.274,7.623 -8.322,12.372 -2.051,4.747 -3.074,9.821 -3.074,15.22 0,5.399 1.023,10.472 3.074,15.221 2.048,4.747 4.823,8.87 8.322,12.371 3.499,3.498 7.649,6.272 12.448,8.323 4.798,2.048 9.897,3.073 15.294,3.073 3.697,0 7.322,-0.673 10.873,-2.024 C -6.124,23.617 -2.9,21.894 0,19.794 v 5.698 H 17.995 V -49.486 H 0 Z"
             style="fill:#606f42;fill-opacity:1;fill-rule:nonzero;stroke:none"
             id="path63275" />
        </g>
        <path
           d="m 568.019,250.669 h 17.995 V 145.698 h -17.995 z"
           style="fill:#606f42;fill-opacity:1;fill-rule:nonzero;stroke:none"
           id="path63277" />
        <g
           id="g63279"
           transform="translate(606.1056,240.3213)"
           style="fill:#606f42;fill-opacity:1">
          <path
             d="M 0,0 H 17.995 V -19.644 H 32.991 V -36.74 H 17.995 v -31.491 c 0,-6.2 2.948,-9.296 8.848,-9.296 h 6.148 v -17.096 h -8.548 c -7.598,0 -13.57,1.95 -17.92,5.849 C 2.176,-84.876 0,-78.229 0,-68.83 v 32.09 h -11.097 v 17.096 H 0 Z"
             style="fill:#606f42;fill-opacity:1;fill-rule:nonzero;stroke:none"
             id="path63281" />
        </g>
        <g
           id="g63283"
           transform="translate(651.0919,250.6693)"
           style="fill:#606f42;fill-opacity:1">
          <path
             d="m 0,0 h 17.995 v -35.69 c 2.899,2.1 6.149,3.823 9.747,5.173 3.6,1.35 7.298,2.024 11.098,2.024 11.595,0 20.218,-3.125 25.867,-9.373 5.646,-6.247 8.472,-15.121 8.472,-26.616 v -40.489 H 54.885 v 40.489 c 0,5.698 -1.3,10.245 -3.898,13.646 -2.602,3.398 -6.999,5.098 -13.197,5.098 -2.8,0 -5.301,-0.351 -7.497,-1.049 -2.201,-0.7 -4.125,-1.575 -5.774,-2.625 -1.649,-1.05 -3.024,-2.124 -4.124,-3.224 -1.101,-1.101 -1.9,-2.099 -2.4,-2.999 v -49.336 H 0 Z"
             style="fill:#606f42;fill-opacity:1;fill-rule:nonzero;stroke:none"
             id="path63285" />
        </g>
      </g>
    </g>
    <g
       id="g63287"
       transform="matrix(0.07602869,0,0,-0.07602869,8.5653092,194.65375)"
       style="fill:#606f42;fill-opacity:1">
      <g
         id="g63289"
         clip-path="url(#clipPath63293)"
         style="fill:#606f42;fill-opacity:1">
        <g
           id="g63295"
           transform="translate(134.9503,438.4755)"
           style="fill:#606f42;fill-opacity:1">
          <path
             d="m 0,0 -3.358,-2.748 c -2.529,-2.071 -2.902,-5.813 -0.831,-8.343 l 6.124,-7.482 c 2.07,-2.529 5.812,-2.902 8.342,-0.832 l 3.357,2.748 c 2.53,2.071 2.904,5.813 0.833,8.342 L 8.343,-0.833 C 6.272,1.698 2.53,2.071 0,0"
             style="fill:#606f42;fill-opacity:1;fill-rule:nonzero;stroke:none"
             id="path63297" />
        </g>
        <g
           id="g63299"
           transform="translate(147.0732,401.589)"
           style="fill:#606f42;fill-opacity:1">
          <path
             d="m 0,0 c -0.714,-0.584 -1.768,-0.364 -2.226,0.436 -2.872,5.02 -1.332,11.936 3.877,16.199 5.208,4.263 12.292,4.406 16.645,0.599 0.694,-0.607 0.702,-1.684 -0.012,-2.268 z"
             style="fill:#606f42;fill-opacity:1;fill-rule:nonzero;stroke:none"
             id="path63301" />
        </g>
        <g
           id="g63303"
           transform="translate(159.8004,462.1743)"
           style="fill:#606f42;fill-opacity:1">
          <path
             d="m 0,0 4.013,6.103 c 0.304,0.462 0.923,0.59 1.385,0.287 l 6.103,-4.013 c 0.462,-0.304 0.59,-0.923 0.286,-1.385 L 7.774,-5.111 C 7.47,-5.573 6.851,-5.701 6.389,-5.398 L 0.286,-1.385 C -0.176,-1.081 -0.304,-0.462 0,0"
             style="fill:#606f42;fill-opacity:1;fill-rule:nonzero;stroke:none"
             id="path63305" />
        </g>
        <g
           id="g63307"
           transform="translate(152.4774,451.0371)"
           style="fill:#606f42;fill-opacity:1">
          <path
             d="M 0,0 4.013,6.104 C 4.317,6.565 4.936,6.693 5.398,6.39 l 6.103,-4.013 c 0.462,-0.304 0.59,-0.923 0.286,-1.385 L 7.774,-5.111 C 7.47,-5.573 6.851,-5.701 6.389,-5.398 L 0.286,-1.385 C -0.176,-1.081 -0.304,-0.462 0,0"
             style="fill:#606f42;fill-opacity:1;fill-rule:nonzero;stroke:none"
             id="path63309" />
        </g>
        <g
           id="g63311"
           transform="translate(170.3632,455.229)"
           style="fill:#606f42;fill-opacity:1">
          <path
             d="m 0,0 4.013,6.103 c 0.304,0.462 0.923,0.59 1.385,0.287 l 6.103,-4.013 c 0.462,-0.304 0.59,-0.923 0.286,-1.385 L 7.774,-5.111 C 7.47,-5.573 6.851,-5.701 6.389,-5.398 L 0.286,-1.385 C -0.176,-1.081 -0.304,-0.462 0,0"
             style="fill:#606f42;fill-opacity:1;fill-rule:nonzero;stroke:none"
             id="path63313" />
        </g>
        <g
           id="g63315"
           transform="translate(163.0402,444.0918)"
           style="fill:#606f42;fill-opacity:1">
          <path
             d="m 0,0 4.013,6.103 c 0.304,0.462 0.923,0.59 1.385,0.287 l 6.103,-4.013 c 0.462,-0.304 0.59,-0.923 0.286,-1.385 L 7.774,-5.111 C 7.47,-5.573 6.851,-5.701 6.389,-5.398 L 0.286,-1.385 C -0.176,-1.081 -0.304,-0.462 0,0"
             style="fill:#606f42;fill-opacity:1;fill-rule:nonzero;stroke:none"
             id="path63317" />
        </g>
        <g
           id="g63319"
           transform="translate(155.7171,432.9545)"
           style="fill:#606f42;fill-opacity:1">
          <path
             d="M 0,0 4.013,6.104 C 4.317,6.565 4.936,6.693 5.398,6.39 l 6.103,-4.013 c 0.462,-0.304 0.59,-0.923 0.286,-1.385 L 7.774,-5.111 C 7.47,-5.573 6.851,-5.701 6.389,-5.398 L 0.286,-1.385 C -0.176,-1.081 -0.304,-0.462 0,0"
             style="fill:#606f42;fill-opacity:1;fill-rule:nonzero;stroke:none"
             id="path63321" />
        </g>
        <g
           id="g63323"
           transform="translate(156.6552,442.2768)"
           style="fill:#606f42;fill-opacity:1">
          <path
             d="M 0,0 -6.103,4.013 C -6.565,4.316 -7.184,4.188 -7.488,3.726 l -2.681,-4.077 6.096,-7.447 c 0.134,0.075 0.256,0.173 0.346,0.31 l 4.013,6.103 C 0.59,-0.923 0.462,-0.304 0,0"
             style="fill:#606f42;fill-opacity:1;fill-rule:nonzero;stroke:none"
             id="path63325" />
        </g>
        <g
           id="g63327"
           transform="translate(103.6626,415.0526)"
           style="fill:#606f42;fill-opacity:1">
          <path
             d="M 0,0 -6.776,-2.728 C -7.289,-2.934 -7.537,-3.516 -7.33,-4.029 l 2.727,-6.775 c 0.207,-0.513 0.789,-0.761 1.301,-0.555 l 6.776,2.728 c 0.513,0.207 0.761,0.789 0.555,1.302 L 1.301,-0.554 C 1.095,-0.041 0.513,0.206 0,0"
             style="fill:#606f42;fill-opacity:1;fill-rule:nonzero;stroke:none"
             id="path63329" />
        </g>
        <g
           id="g63331"
           transform="translate(116.0273,420.0303)"
           style="fill:#606f42;fill-opacity:1">
          <path
             d="M 0,0 -6.776,-2.728 C -7.289,-2.934 -7.537,-3.516 -7.33,-4.029 l 2.727,-6.775 c 0.207,-0.513 0.789,-0.761 1.301,-0.555 l 6.776,2.728 c 0.513,0.207 0.761,0.789 0.555,1.302 L 1.301,-0.554 C 1.095,-0.041 0.513,0.206 0,0"
             style="fill:#606f42;fill-opacity:1;fill-rule:nonzero;stroke:none"
             id="path63333" />
        </g>
        <g
           id="g63335"
           transform="translate(108.3836,403.3256)"
           style="fill:#606f42;fill-opacity:1">
          <path
             d="M 0,0 -6.776,-2.728 C -7.289,-2.934 -7.537,-3.516 -7.33,-4.029 l 2.727,-6.775 c 0.207,-0.513 0.789,-0.761 1.301,-0.555 l 6.776,2.728 c 0.513,0.207 0.761,0.789 0.555,1.302 L 1.301,-0.554 C 1.095,-0.041 0.513,0.206 0,0"
             style="fill:#606f42;fill-opacity:1;fill-rule:nonzero;stroke:none"
             id="path63337" />
        </g>
        <g
           id="g63339"
           transform="translate(120.7484,408.3034)"
           style="fill:#606f42;fill-opacity:1">
          <path
             d="M 0,0 -6.776,-2.728 C -7.289,-2.934 -7.537,-3.516 -7.33,-4.029 l 2.727,-6.775 c 0.207,-0.513 0.789,-0.761 1.301,-0.555 l 6.776,2.728 c 0.513,0.207 0.761,0.789 0.555,1.302 L 1.301,-0.554 C 1.095,-0.041 0.513,0.206 0,0"
             style="fill:#606f42;fill-opacity:1;fill-rule:nonzero;stroke:none"
             id="path63341" />
        </g>
        <g
           id="g63343"
           transform="translate(133.1131,413.2811)"
           style="fill:#606f42;fill-opacity:1">
          <path
             d="M 0,0 -6.776,-2.728 C -7.289,-2.934 -7.537,-3.516 -7.33,-4.029 l 2.727,-6.775 c 0.207,-0.513 0.789,-0.761 1.301,-0.555 l 6.776,2.728 c 0.513,0.207 0.761,0.789 0.555,1.302 L 1.301,-0.554 C 1.095,-0.041 0.513,0.206 0,0"
             style="fill:#606f42;fill-opacity:1;fill-rule:nonzero;stroke:none"
             id="path63345" />
        </g>
        <g
           id="g63347"
           transform="translate(123.7892,414.2038)"
           style="fill:#606f42;fill-opacity:1">
          <path
             d="m 0,0 -2.728,6.775 c -0.206,0.513 0.042,1.095 0.555,1.301 L 2.353,9.899 8.449,2.451 C 8.349,2.335 8.229,2.235 8.077,2.174 L 1.301,-0.554 C 0.788,-0.761 0.206,-0.513 0,0"
             style="fill:#606f42;fill-opacity:1;fill-rule:nonzero;stroke:none"
             id="path63349" />
        </g>
        <path
           d="m 117.005,255.213 h 52.768 v -10.84 h -52.768 z"
           style="fill:#606f42;fill-opacity:1;fill-rule:nonzero;stroke:none"
           id="path63351" />
        <path
           d="m 192.003,244.373 h -10.141 v 10.84 h 10.141 z"
           style="fill:#606f42;fill-opacity:1;fill-rule:nonzero;stroke:none"
           id="path63353" />
        <path
           d="m 256.865,244.373 h -52.776 v 10.84 h 52.776 z"
           style="fill:#606f42;fill-opacity:1;fill-rule:nonzero;stroke:none"
           id="path63355" />
        <g
           id="g63357"
           transform="translate(259.9413,364.3911)"
           style="fill:#606f42;fill-opacity:1">
          <path
             d="m 0,0 c -1.938,-4.394 -4.367,-7.68 -7.028,-9.484 -2.295,-1.553 -4.59,-1.902 -6.644,-1 -2.509,1.099 -4.438,4.01 -4.438,7.921 0,1.616 0.322,3.393 1.072,5.287 2.312,5.849 9.974,12.448 16.556,16.386 0.026,0.018 0.053,0.027 0.08,0.027 0.009,0 0.027,-0.009 0.036,-0.009 0.071,-0.018 0.089,-0.072 0.098,-0.081 C 0.777,16.806 3.875,8.832 0,0"
             style="fill:#606f42;fill-opacity:1;fill-rule:nonzero;stroke:none"
             id="path63359" />
        </g>
        <g
           id="g63361"
           transform="translate(259.9413,364.3911)"
           style="fill:#606f42;fill-opacity:1">
          <path
             d="m 0,0 c -1.938,-4.394 -4.367,-7.68 -7.028,-9.484 -2.295,-1.553 -4.59,-1.902 -6.644,-1 -2.509,1.099 -4.438,4.01 -4.438,7.921 0,1.616 0.322,3.393 1.072,5.287 2.312,5.849 9.974,12.448 16.556,16.386 0.026,0.018 0.053,0.027 0.08,0.027 0.009,0 0.027,-0.009 0.036,-0.009 0.071,-0.018 0.089,-0.072 0.098,-0.081 C 0.777,16.806 3.875,8.832 0,0"
             style="fill:#606f42;fill-opacity:1;fill-rule:nonzero;stroke:none"
             id="path63363" />
        </g>
        <g
           id="g63365"
           transform="translate(259.9413,334.2706)"
           style="fill:#606f42;fill-opacity:1">
          <path
             d="m 0,0 c -1.938,-4.402 -4.367,-7.68 -7.028,-9.493 -2.295,-1.553 -4.599,-1.893 -6.644,-1 -2.509,1.108 -4.438,4.019 -4.438,7.93 0,1.607 0.322,3.384 1.072,5.278 2.312,5.858 9.974,12.448 16.556,16.395 0.008,0 0.036,0.018 0.08,0.018 h 0.036 c 0.044,-0.018 0.08,-0.045 0.098,-0.09 C 0.777,16.806 3.875,8.832 0,0"
             style="fill:#606f42;fill-opacity:1;fill-rule:nonzero;stroke:none"
             id="path63367" />
        </g>
        <g
           id="g63369"
           transform="translate(242.9048,307.2211)"
           style="fill:#606f42;fill-opacity:1">
          <path
             d="m 0,0 c -2.56,-6.494 -0.176,-11.652 3.367,-13.21 2.053,-0.901 4.347,-0.555 6.641,1.002 2.663,1.806 5.093,5.088 7.027,9.489 3.88,8.829 0.776,16.805 -0.268,19.04 -0.007,0.015 -0.03,0.064 -0.092,0.083 -0.014,0.005 -0.029,0.006 -0.043,0.006 -0.028,0 -0.055,-0.007 -0.081,-0.023 C 9.975,12.447 2.307,5.852 0,0"
             style="fill:#606f42;fill-opacity:1;fill-rule:nonzero;stroke:none"
             id="path63371" />
        </g>
        <g
           id="g63373"
           transform="translate(245.8288,280.7603)"
           style="fill:#606f42;fill-opacity:1">
          <path
             d="m 0,0 h -0.001 c -2.068,-5.027 -0.302,-9.059 2.411,-10.299 3.479,-1.588 7.793,1.677 10.742,8.127 3.09,6.759 0.926,12.958 0.073,14.917 C 8.135,9.769 1.869,4.545 0,0"
             style="fill:#606f42;fill-opacity:1;fill-rule:nonzero;stroke:none"
             id="path63375" />
        </g>
        <g
           id="g63377"
           transform="translate(227.451,387.2674)"
           style="fill:#606f42;fill-opacity:1">
          <path
             d="m 0,0 c -0.773,-1.857 -2.41,-6.994 0.142,-12.576 2.506,-5.483 6.143,-8.277 9.057,-6.944 2.27,1.038 3.741,4.433 1.995,8.68 C 9.613,-6.996 4.346,-2.577 0,0"
             style="fill:#606f42;fill-opacity:1;fill-rule:nonzero;stroke:none"
             id="path63379" />
        </g>
        <g
           id="g63381"
           transform="translate(234.5827,273.005)"
           style="fill:#606f42;fill-opacity:1">
          <path
             d="m 0,0 c -0.329,-1.68 -0.647,-5.358 1.735,-8.873 2.484,-3.668 5.409,-5.279 7.286,-4.009 1.46,0.99 2.066,3.563 0.312,6.382 C 7.741,-3.944 3.5,-1.407 0,0"
             style="fill:#606f42;fill-opacity:1;fill-rule:nonzero;stroke:none"
             id="path63383" />
        </g>
        <g
           id="g63385"
           transform="translate(222.2841,350.034)"
           style="fill:#606f42;fill-opacity:1">
          <path
             d="m 0,0 c 3.635,-8.27 9.128,-12.486 13.669,-10.491 3.542,1.558 5.925,6.717 3.367,13.21 C 14.728,8.571 7.06,15.167 0.484,19.106 0.472,19.113 0.444,19.13 0.404,19.13 0.391,19.13 0.376,19.129 0.36,19.123 0.319,19.111 0.288,19.083 0.269,19.04 -0.775,16.806 -3.88,8.83 0,0"
             style="fill:#606f42;fill-opacity:1;fill-rule:nonzero;stroke:none"
             id="path63387" />
        </g>
        <g
           id="g63389"
           transform="translate(222.2841,319.9105)"
           style="fill:#606f42;fill-opacity:1">
          <path
             d="m 0,0 c 3.636,-8.271 9.134,-12.484 13.669,-10.492 3.542,1.558 5.925,6.718 3.367,13.211 C 14.728,8.572 7.059,15.167 0.484,19.106 0.458,19.122 0.431,19.129 0.403,19.129 0.389,19.129 0.374,19.128 0.36,19.123 0.298,19.104 0.276,19.056 0.269,19.04 -0.775,16.805 -3.88,8.828 0,0"
             style="fill:#606f42;fill-opacity:1;fill-rule:nonzero;stroke:none"
             id="path63391" />
        </g>
        <g
           id="g63393"
           transform="translate(222.2841,290.1419)"
           style="fill:#606f42;fill-opacity:1">
          <path
             d="m 0,0 c 3.636,-8.271 9.134,-12.484 13.669,-10.492 3.542,1.558 5.925,6.717 3.367,13.21 C 14.727,8.572 7.059,15.167 0.484,19.105 0.457,19.122 0.43,19.129 0.402,19.129 0.388,19.129 0.374,19.128 0.36,19.123 0.298,19.104 0.276,19.056 0.269,19.04 -0.775,16.805 -3.88,8.829 0,0"
             style="fill:#606f42;fill-opacity:1;fill-rule:nonzero;stroke:none"
             id="path63395" />
        </g>
        <g
           id="g63397"
           transform="translate(113.9381,364.3911)"
           style="fill:#606f42;fill-opacity:1">
          <path
             d="m 0,0 c 1.938,-4.394 4.367,-7.68 7.028,-9.484 2.295,-1.553 4.59,-1.902 6.644,-1 2.509,1.099 4.438,4.01 4.438,7.921 0,1.616 -0.322,3.393 -1.072,5.287 C 14.726,8.573 7.064,15.172 0.482,19.11 0.456,19.128 0.429,19.137 0.402,19.137 0.393,19.137 0.375,19.128 0.366,19.128 0.295,19.11 0.277,19.056 0.268,19.047 -0.777,16.806 -3.875,8.832 0,0"
             style="fill:#606f42;fill-opacity:1;fill-rule:nonzero;stroke:none"
             id="path63399" />
        </g>
        <g
           id="g63401"
           transform="translate(113.9381,364.3911)"
           style="fill:#606f42;fill-opacity:1">
          <path
             d="m 0,0 c 1.938,-4.394 4.367,-7.68 7.028,-9.484 2.295,-1.553 4.59,-1.902 6.644,-1 2.509,1.099 4.438,4.01 4.438,7.921 0,1.616 -0.322,3.393 -1.072,5.287 C 14.726,8.573 7.064,15.172 0.482,19.11 0.456,19.128 0.429,19.137 0.402,19.137 0.393,19.137 0.375,19.128 0.366,19.128 0.295,19.11 0.277,19.056 0.268,19.047 -0.777,16.806 -3.875,8.832 0,0"
             style="fill:#606f42;fill-opacity:1;fill-rule:nonzero;stroke:none"
             id="path63403" />
        </g>
        <g
           id="g63405"
           transform="translate(113.9381,334.2706)"
           style="fill:#606f42;fill-opacity:1">
          <path
             d="m 0,0 c 1.938,-4.402 4.367,-7.68 7.028,-9.493 2.295,-1.553 4.599,-1.893 6.644,-1 2.509,1.108 4.438,4.019 4.438,7.93 0,1.607 -0.322,3.384 -1.072,5.278 -2.312,5.858 -9.974,12.448 -16.556,16.395 -0.008,0 -0.036,0.018 -0.08,0.018 H 0.366 C 0.322,19.11 0.286,19.083 0.268,19.038 -0.777,16.806 -3.875,8.832 0,0"
             style="fill:#606f42;fill-opacity:1;fill-rule:nonzero;stroke:none"
             id="path63407" />
        </g>
        <g
           id="g63409"
           transform="translate(130.9747,307.2211)"
           style="fill:#606f42;fill-opacity:1">
          <path
             d="m 0,0 c 2.56,-6.494 0.176,-11.652 -3.367,-13.21 -2.053,-0.901 -4.347,-0.555 -6.641,1.002 -2.663,1.806 -5.093,5.088 -7.027,9.489 -3.88,8.829 -0.776,16.805 0.268,19.04 0.007,0.015 0.03,0.064 0.092,0.083 0.014,0.005 0.029,0.006 0.043,0.006 0.028,0 0.055,-0.007 0.081,-0.023 C -9.975,12.447 -2.307,5.852 0,0"
             style="fill:#606f42;fill-opacity:1;fill-rule:nonzero;stroke:none"
             id="path63411" />
        </g>
        <g
           id="g63413"
           transform="translate(128.0506,280.7603)"
           style="fill:#606f42;fill-opacity:1">
          <path
             d="m 0,0 h 0.001 c 2.068,-5.027 0.302,-9.059 -2.411,-10.299 -3.479,-1.588 -7.793,1.677 -10.742,8.127 -3.09,6.759 -0.926,12.958 -0.073,14.917 C -8.135,9.769 -1.869,4.545 0,0"
             style="fill:#606f42;fill-opacity:1;fill-rule:nonzero;stroke:none"
             id="path63415" />
        </g>
        <g
           id="g63417"
           transform="translate(146.4284,387.2674)"
           style="fill:#606f42;fill-opacity:1">
          <path
             d="m 0,0 c 0.773,-1.857 2.41,-6.994 -0.142,-12.576 -2.506,-5.483 -6.143,-8.277 -9.057,-6.944 -2.27,1.038 -3.741,4.433 -1.995,8.68 C -9.613,-6.996 -4.346,-2.577 0,0"
             style="fill:#606f42;fill-opacity:1;fill-rule:nonzero;stroke:none"
             id="path63419" />
        </g>
        <g
           id="g63421"
           transform="translate(139.2967,273.005)"
           style="fill:#606f42;fill-opacity:1">
          <path
             d="m 0,0 c 0.329,-1.68 0.647,-5.358 -1.735,-8.873 -2.484,-3.668 -5.409,-5.279 -7.286,-4.009 -1.46,0.99 -2.066,3.563 -0.312,6.382 C -7.741,-3.944 -3.5,-1.407 0,0"
             style="fill:#606f42;fill-opacity:1;fill-rule:nonzero;stroke:none"
             id="path63423" />
        </g>
        <g
           id="g63425"
           transform="translate(151.5953,350.034)"
           style="fill:#606f42;fill-opacity:1">
          <path
             d="m 0,0 c -3.635,-8.27 -9.128,-12.486 -13.669,-10.491 -3.542,1.558 -5.925,6.717 -3.367,13.21 2.308,5.852 9.976,12.448 16.552,16.387 0.012,0.007 0.04,0.024 0.08,0.024 0.013,0 0.028,-10e-4 0.044,-0.007 0.041,-0.012 0.072,-0.04 0.091,-0.083 C 0.775,16.806 3.88,8.83 0,0"
             style="fill:#606f42;fill-opacity:1;fill-rule:nonzero;stroke:none"
             id="path63427" />
        </g>
        <g
           id="g63429"
           transform="translate(151.5953,319.9105)"
           style="fill:#606f42;fill-opacity:1">
          <path
             d="m 0,0 c -3.636,-8.271 -9.134,-12.484 -13.669,-10.492 -3.542,1.558 -5.925,6.718 -3.367,13.211 2.308,5.853 9.977,12.448 16.552,16.387 0.026,0.016 0.053,0.023 0.081,0.023 0.014,0 0.029,-0.001 0.043,-0.006 0.062,-0.019 0.084,-0.067 0.091,-0.083 C 0.775,16.805 3.88,8.828 0,0"
             style="fill:#606f42;fill-opacity:1;fill-rule:nonzero;stroke:none"
             id="path63431" />
        </g>
        <g
           id="g63433"
           transform="translate(151.5953,290.1419)"
           style="fill:#606f42;fill-opacity:1">
          <path
             d="m 0,0 c -3.636,-8.271 -9.134,-12.484 -13.669,-10.492 -3.542,1.558 -5.925,6.717 -3.367,13.21 2.309,5.854 9.977,12.449 16.552,16.387 0.027,0.017 0.054,0.024 0.082,0.024 0.014,0 0.028,-0.001 0.042,-0.006 0.062,-0.019 0.084,-0.067 0.091,-0.083 C 0.775,16.805 3.88,8.829 0,0"
             style="fill:#606f42;fill-opacity:1;fill-rule:nonzero;stroke:none"
             id="path63435" />
        </g>
        <g
           id="g63437"
           transform="translate(188.7279,390.1838)"
           style="fill:#606f42;fill-opacity:1">
          <path
             d="m 0,0 c -2.56,-6.494 -0.176,-11.652 3.367,-13.21 2.047,-0.9 4.345,-0.556 6.641,1.002 2.663,1.806 5.093,5.088 7.027,9.489 3.88,8.829 0.776,16.805 -0.268,19.04 -0.019,0.042 -0.051,0.071 -0.092,0.083 -0.016,0.006 -0.031,0.007 -0.044,0.007 -0.04,0 -0.068,-0.017 -0.079,-0.023 C 9.975,12.448 2.307,5.852 0,0"
             style="fill:#606f42;fill-opacity:1;fill-rule:nonzero;stroke:none"
             id="path63439" />
        </g>
        <g
           id="g63441"
           transform="translate(188.7279,360.0603)"
           style="fill:#606f42;fill-opacity:1">
          <path
             d="m 0,0 c -2.56,-6.494 -0.176,-11.653 3.367,-13.211 2.048,-0.901 4.346,-0.553 6.641,1.003 2.663,1.806 5.093,5.088 7.027,9.489 3.88,8.828 0.776,16.804 -0.268,19.04 -0.007,0.015 -0.03,0.064 -0.092,0.083 -0.014,0.005 -0.028,0.006 -0.043,0.006 -0.027,0 -0.054,-0.007 -0.08,-0.023 C 9.975,12.448 2.307,5.853 0,0"
             style="fill:#606f42;fill-opacity:1;fill-rule:nonzero;stroke:none"
             id="path63443" />
        </g>
        <g
           id="g63445"
           transform="translate(173.2742,410.337)"
           style="fill:#606f42;fill-opacity:1">
          <path
             d="m 0,0 c -0.773,-1.857 -2.41,-6.993 0.142,-12.576 1.356,-2.967 3.026,-5.161 4.83,-6.346 1.036,-0.681 2.611,-1.339 4.226,-0.597 2.272,1.037 3.742,4.432 1.996,8.68 C 9.612,-6.994 4.345,-2.575 0,0"
             style="fill:#606f42;fill-opacity:1;fill-rule:nonzero;stroke:none"
             id="path63447" />
        </g>
        <g
           id="g63449"
           transform="translate(168.1072,373.1045)"
           style="fill:#606f42;fill-opacity:1">
          <path
             d="m 0,0 c 3.636,-8.271 9.132,-12.483 13.669,-10.492 3.542,1.557 5.925,6.717 3.367,13.211 C 14.727,8.572 7.059,15.167 0.484,19.105 0.457,19.122 0.43,19.129 0.402,19.129 0.388,19.129 0.374,19.128 0.36,19.123 0.298,19.104 0.276,19.056 0.269,19.041 -0.775,16.805 -3.88,8.829 0,0"
             style="fill:#606f42;fill-opacity:1;fill-rule:nonzero;stroke:none"
             id="path63451" />
        </g>
        <g
           id="g63453"
           transform="translate(168.1072,342.9801)"
           style="fill:#606f42;fill-opacity:1">
          <path
             d="m 0,0 c 3.636,-8.27 9.13,-12.485 13.669,-10.491 3.542,1.558 5.926,6.716 3.367,13.21 C 14.728,8.571 7.06,15.167 0.484,19.106 0.472,19.113 0.444,19.13 0.404,19.13 0.391,19.13 0.376,19.129 0.36,19.123 0.319,19.111 0.288,19.083 0.269,19.041 -0.775,16.806 -3.88,8.83 0,0"
             style="fill:#606f42;fill-opacity:1;fill-rule:nonzero;stroke:none"
             id="path63455" />
        </g>
        <g
           id="g63457"
           transform="translate(205.9519,328.0521)"
           style="fill:#606f42;fill-opacity:1">
          <path
             d="m 0,0 c 3.562,8.635 0.568,16.366 -0.457,18.56 -0.007,0.016 -0.03,0.065 -0.092,0.084 -0.04,0.011 -0.082,0.006 -0.123,-0.018 C -7.249,14.688 -14.917,8.093 -17.224,2.239 -17.521,1.487 -17.752,0.739 -17.926,0 Z"
             style="fill:#606f42;fill-opacity:1;fill-rule:nonzero;stroke:none"
             id="path63459" />
        </g>
        <g
           id="g63461"
           transform="translate(187.2727,290.4784)"
           style="fill:#606f42;fill-opacity:1">
          <path
             d="M 0,0 6.816,8.763 5.254,10.011 -2.533,0 h -15.731 c 0,8.945 8.218,16.196 18.357,16.196 C 10.231,16.196 18.45,8.945 18.45,0 Z m 22.386,31.525 h -45.448 v -63.138 h 8.808 v -11.279 -21.653 c 0,-0.12 0.02,-0.238 0.06,-0.347 l 2.071,-5.726 c 0.255,-0.703 1.09,-0.703 1.344,0 l 2.071,5.726 c 0.04,0.109 0.061,0.227 0.061,0.347 v 21.653 11.279 H 7.972 v -11.279 -21.653 c 0,-0.12 0.021,-0.238 0.06,-0.347 l 2.072,-5.726 c 0.254,-0.703 1.089,-0.703 1.344,0 l 2.071,5.726 c 0.04,0.109 0.06,0.227 0.06,0.347 v 21.653 11.279 h 8.807 z"
             style="fill:#606f42;fill-opacity:1;fill-rule:nonzero;stroke:none"
             id="path63463" />
        </g>
        <path
           d="m 256.865,145.999 h -139.86 v 53.823 h 139.86 z"
           style="fill:#606f42;fill-opacity:1;fill-rule:nonzero;stroke:none"
           id="path63465" />
        <g
           id="g63467"
           transform="translate(204.0779,238.8922)"
           style="fill:#606f42;fill-opacity:1">
          <path
             d="m 0,0 v -12.09 c 0,-0.47 -0.08,-0.92 -0.23,-1.36 l -2.08,-5.74 c -0.55,-1.52 -2.406,-2.5 -3.976,-2.5 -1.57,0 -2.94,0.98 -3.49,2.5 l -2.08,5.73 c -0.15,0.45 -0.23,0.9 -0.23,1.37 V 0 h -10.13 v -12.09 c 0,-0.47 -0.08,-0.92 -0.24,-1.36 l -2.07,-5.74 c -0.56,-1.52 -2.42,-2.5 -3.99,-2.5 -1.57,0 -2.94,0.98 -3.49,2.5 l -2.07,5.73 c -0.16,0.45 -0.24,0.9 -0.24,1.37 V 0 L -87.084,0.001 V -33.588 L 52.798,-33.46 V 0.129 Z"
             style="fill:#606f42;fill-opacity:1;fill-rule:nonzero;stroke:none"
             id="path63469" />
        </g>
      </g>
    </g>
    <path
       d="m 52.603057,165.7463 h 0.936391 v 2.62726 h -0.936391 z"
       style="fill:#606f42;fill-opacity:1;fill-rule:nonzero;stroke:none;stroke-width:0.178701"
       id="path63471" />
    <path
       d="m 48.660374,165.7463 h 0.936395 v 2.62726 h -0.936395 z"
       style="fill:#606f42;fill-opacity:1;fill-rule:nonzero;stroke:none;stroke-width:0.178701"
       id="path63473" />
    <path
       d="m 52.603057,179.38762 h 0.936391 v 2.62727 h -0.936391 z"
       style="fill:#606f42;fill-opacity:1;fill-rule:nonzero;stroke:none;stroke-width:0.178701"
       id="path63475" />
    <path
       d="m 48.660374,179.38762 h 0.936395 v 2.62727 h -0.936395 z"
       style="fill:#606f42;fill-opacity:1;fill-rule:nonzero;stroke:none;stroke-width:0.178701"
       id="path63477" />
    <g
       id="g63479"
       transform="matrix(0.17870107,0,0,-0.17870107,-29.352476,231.51687)"
       style="fill:#606f42;fill-opacity:1">
      <g
         id="g63481"
         clip-path="url(#clipPath63485)"
         style="fill:#606f42;fill-opacity:1">
        <g
           id="g63487"
           transform="translate(563.7351,303.2083)"
           style="fill:#606f42;fill-opacity:1">
          <path
             d="m 0,0 c 0,-1.689 0.337,-3.292 1.012,-4.811 0.677,-1.521 1.583,-2.872 2.723,-4.054 1.141,-1.182 2.489,-2.132 4.054,-2.849 1.561,-0.717 3.311,-1.076 5.254,-1.076 4.304,0 7.66,0.966 10.066,2.899 2.406,1.934 3.61,4.593 3.61,7.975 0,1.69 -0.465,3.161 -1.394,4.408 -0.931,1.25 -2.152,2.377 -3.671,3.384 -1.519,1.005 -3.231,1.911 -5.129,2.716 -1.898,0.806 -3.822,1.572 -5.762,2.298 -3.292,1.292 -6.417,2.672 -9.369,4.138 -2.958,1.466 -5.573,3.235 -7.851,5.305 -2.28,2.07 -4.074,4.592 -5.382,7.568 -1.309,2.974 -1.962,6.618 -1.962,10.93 0,3.621 0.653,7.007 1.962,10.154 1.308,3.148 3.165,5.886 5.571,8.215 2.407,2.328 5.234,4.161 8.484,5.498 3.247,1.338 6.857,2.006 10.827,2.006 3.967,0 7.596,-0.633 10.888,-1.9 3.293,-1.265 6.1,-2.996 8.422,-5.19 2.322,-2.197 4.114,-4.813 5.38,-7.851 1.268,-3.039 1.901,-6.331 1.901,-9.877 H 23.173 c -0.086,2.701 -1.056,4.98 -2.913,6.838 -1.856,1.855 -4.265,2.785 -7.217,2.785 -2.958,0 -5.425,-0.949 -7.409,-2.849 -1.982,-1.898 -2.975,-4.326 -2.975,-7.28 0,-1.52 0.399,-2.871 1.205,-4.053 0.8,-1.182 1.876,-2.26 3.228,-3.228 1.349,-0.971 2.932,-1.88 4.747,-2.722 1.815,-0.845 3.693,-1.691 5.637,-2.532 3.292,-1.521 6.497,-2.999 9.622,-4.433 3.122,-1.435 5.865,-3.146 8.229,-5.128 2.364,-1.984 4.262,-4.348 5.698,-7.091 C 42.46,7.448 43.18,4.052 43.18,0 c 0,-4.222 -0.761,-8.063 -2.28,-11.522 -1.52,-3.463 -3.63,-6.418 -6.331,-8.865 -2.704,-2.449 -5.887,-4.327 -9.562,-5.634 -3.671,-1.309 -7.66,-1.964 -11.964,-1.964 -4.223,0 -8.126,0.655 -11.713,1.964 -3.588,1.307 -6.691,3.185 -9.307,5.634 -2.617,2.447 -4.685,5.402 -6.205,8.865 -1.519,3.459 -2.279,7.3 -2.279,11.522 z"
             style="fill:#606f42;fill-opacity:1;fill-rule:nonzero;stroke:none"
             id="path63489" />
        </g>
        <g
           id="g63491"
           transform="translate(643.2521,290.7994)"
           style="fill:#606f42;fill-opacity:1">
          <path
             d="m 0,0 c 2.616,0 4.98,0.462 7.092,1.392 2.108,0.929 3.925,2.194 5.444,3.8 1.521,1.601 2.68,3.501 3.483,5.698 0.801,2.193 1.203,4.599 1.203,7.217 0,2.616 -0.402,5.021 -1.203,7.217 -0.803,2.195 -1.962,4.093 -3.483,5.698 C 11.017,32.624 9.2,33.891 7.092,34.821 4.98,35.749 2.616,36.213 0,36.213 c -2.616,0 -4.982,-0.464 -7.09,-1.392 -2.112,-0.93 -3.925,-2.197 -5.446,-3.799 -1.519,-1.605 -2.701,-3.503 -3.544,-5.698 -0.845,-2.196 -1.267,-4.601 -1.267,-7.217 0,-2.618 0.422,-5.024 1.267,-7.217 0.843,-2.197 2.025,-4.097 3.544,-5.698 1.521,-1.606 3.334,-2.871 5.446,-3.8 C -4.982,0.462 -2.616,0 0,0 m -32.921,18.107 c 0,4.559 0.864,8.842 2.595,12.852 1.729,4.008 4.072,7.49 7.027,10.446 2.955,2.954 6.437,5.297 10.447,7.028 4.008,1.729 8.294,2.595 12.852,2.595 4.559,0 8.842,-0.866 12.854,-2.595 4.008,-1.731 7.49,-4.074 10.445,-7.028 2.955,-2.956 5.298,-6.438 7.029,-10.446 1.728,-4.01 2.595,-8.293 2.595,-12.852 0,-4.559 -0.867,-8.844 -2.595,-12.852 C 28.597,1.245 26.254,-2.239 23.299,-5.192 20.344,-8.148 16.862,-10.49 12.854,-12.219 8.842,-13.949 4.559,-14.815 0,-14.815 c -4.558,0 -8.844,0.866 -12.852,2.596 -4.01,1.729 -7.492,4.071 -10.447,7.027 -2.955,2.953 -5.298,6.437 -7.027,10.447 -1.731,4.008 -2.595,8.293 -2.595,12.852"
             style="fill:#606f42;fill-opacity:1;fill-rule:nonzero;stroke:none"
             id="path63493" />
        </g>
        <path
           d="m 682.506,340.562 h 15.195 V 277.25 h -15.195 z m 0,25.325 h 15.195 v -15.195 h -15.195 z"
           style="fill:#606f42;fill-opacity:1;fill-rule:nonzero;stroke:none"
           id="path63495" />
        <path
           d="m 710.36,365.887 h 15.195 V 277.25 H 710.36 Z"
           style="fill:#606f42;fill-opacity:1;fill-rule:nonzero;stroke:none"
           id="path63497" />
      </g>
    </g>
  </g>
</svg>
